<svg width="208" height="110" viewBox="0 0 208 110" fill="none" xmlns="http://www.w3.org/2000/svg">
<path d="M30.0201 50.4256C30.0201 50.3628 30.041 50.3105 30.0828 50.2687C30.1456 50.2059 30.2188 50.1745 30.3025 50.1745H40.8138C40.9184 50.1745 40.9916 50.2059 41.0334 50.2687C41.0753 50.3105 41.0962 50.3628 41.0962 50.4256C41.0962 50.4883 41.0648 50.5406 41.0021 50.5825C40.9602 50.6243 40.887 50.6661 40.7824 50.708L39.8725 51.0217C38.9939 51.3564 38.1572 51.984 37.3623 52.9044C36.5674 53.8038 35.9504 55.0275 35.5111 56.5755L26.2235 88.7683C26.1189 89.2494 26.0457 89.6992 26.0038 90.1175C25.962 90.5359 25.9411 90.9752 25.9411 91.4354V93.7259C25.9411 93.8514 25.9201 93.9455 25.8783 94.0083C25.8365 94.071 25.7633 94.1024 25.6587 94.1024H15.6808C15.5553 94.1024 15.4611 94.071 15.3984 94.0083C15.3356 93.9455 15.3042 93.8514 15.3042 93.7259V91.4668C15.3042 91.1739 15.2519 90.8288 15.1473 90.4313C15.0428 90.0339 14.9173 89.5946 14.7708 89.1135L3.3496 52.4965C3.22409 52.0781 3.08812 51.7643 2.94169 51.5551C2.81618 51.346 2.63838 51.21 2.40828 51.1472L1.24732 50.7393C0.933553 50.6138 0.776672 50.5092 0.776672 50.4256C0.776672 50.3628 0.808057 50.3105 0.870811 50.2687C0.933565 50.2059 1.01723 50.1745 1.12182 50.1745H18.0027C18.1282 50.1745 18.2119 50.2059 18.2537 50.2687C18.3165 50.3105 18.3478 50.3628 18.3478 50.4256C18.3478 50.4883 18.3165 50.5406 18.2537 50.5825C18.1909 50.6034 18.0759 50.6452 17.9085 50.708L16.0887 51.0531C15.5448 51.1786 15.2206 51.3878 15.116 51.6806C15.0114 51.9526 15.0428 52.3709 15.2101 52.9357L25.9411 88.3918L24.9684 90.5882L34.7894 56.6696C35.1659 55.3936 35.1241 54.2431 34.6639 53.2181C34.2246 52.1722 33.1683 51.4087 31.4948 50.9276L30.3652 50.708C30.2397 50.6661 30.1456 50.6243 30.0828 50.5825C30.041 50.5406 30.0201 50.4883 30.0201 50.4256Z" fill="white"/>
<path d="M50.3004 66.02V92.1884C50.3004 92.5022 50.3527 92.7532 50.4573 92.9415C50.5828 93.1297 50.7816 93.2552 51.0535 93.318L52.5282 93.6004C52.6537 93.6213 52.7374 93.6527 52.7792 93.6945C52.842 93.7364 52.8733 93.7887 52.8733 93.8514C52.8733 93.9351 52.842 93.9978 52.7792 94.0397C52.7374 94.0815 52.6642 94.1024 52.5596 94.1024H38.5654C38.4818 94.1024 38.4085 94.0815 38.3458 94.0397C38.3039 93.9978 38.283 93.9351 38.283 93.8514C38.283 93.8096 38.3039 93.7677 38.3458 93.7259C38.4085 93.6631 38.5027 93.6213 38.6282 93.6004L40.1029 93.318C40.3958 93.2552 40.5945 93.1297 40.6991 92.9415C40.8036 92.7532 40.856 92.5127 40.856 92.2198V69.6283C40.856 69.4819 40.8141 69.3668 40.7304 69.2832C40.6677 69.1995 40.5526 69.1577 40.3853 69.1577H38.7537C38.6282 69.1577 38.5445 69.1367 38.5027 69.0949C38.4608 69.0531 38.4399 68.9903 38.4399 68.9067C38.4399 68.823 38.4608 68.7602 38.5027 68.7184C38.5654 68.6766 38.6386 68.6452 38.7223 68.6243L49.1395 65.7376C49.3696 65.6748 49.5265 65.633 49.6102 65.6121C49.6938 65.5911 49.788 65.5807 49.8925 65.5807C50.039 65.5807 50.1436 65.6225 50.2063 65.7062C50.2691 65.7899 50.3004 65.8945 50.3004 66.02ZM45.437 62.7254C43.8263 62.7254 42.5189 62.2024 41.5149 61.1565C40.5108 60.1106 40.0088 58.8346 40.0088 57.3285C40.0088 55.8015 40.5108 54.515 41.5149 53.4691C42.5399 52.4232 43.8472 51.9003 45.437 51.9003C47.0686 51.9003 48.3969 52.4232 49.4219 53.4691C50.4678 54.515 50.9907 55.8015 50.9907 57.3285C50.9907 58.8346 50.4678 60.1106 49.4219 61.1565C48.3969 62.2024 47.0686 62.7254 45.437 62.7254Z" fill="white"/>
<path d="M66.1012 77.7864C66.1012 75.1089 66.4987 72.8706 67.2936 71.0717C68.1094 69.2727 69.1553 67.9235 70.4313 67.024C71.7073 66.1036 73.0356 65.6434 74.4162 65.6434C76.0478 65.6434 77.2924 66.1664 78.15 67.2123C79.0286 68.2582 79.4679 69.8061 79.4679 71.8561C79.4679 73.7806 79.0181 75.203 78.1187 76.1234C77.2192 77.0438 76.1001 77.504 74.7613 77.504C73.5062 77.504 72.5858 77.1588 72.0001 76.4685C71.4144 75.7782 71.0902 74.7742 71.0274 73.4563L70.9647 72.3581C70.9438 71.8143 70.8287 71.3854 70.6195 71.0717C70.4104 70.7579 70.0443 70.601 69.5213 70.601C68.9984 70.601 68.5068 70.8729 68.0466 71.4168C67.5864 71.9398 67.2204 72.7556 66.9484 73.8642C66.6765 74.952 66.5405 76.343 66.5405 78.0374L66.1012 77.7864ZM66.5405 66.3024V91.9374C66.5405 92.2093 66.6137 92.4499 66.7602 92.6591C66.9066 92.8683 67.1053 93.0042 67.3563 93.067L70.4313 93.6004C70.5568 93.6422 70.6405 93.6841 70.6823 93.7259C70.7241 93.7468 70.745 93.7887 70.745 93.8514C70.745 93.9351 70.7137 93.9978 70.6509 94.0397C70.5882 94.0815 70.5045 94.1024 70.3999 94.1024H54.8683C54.7428 94.1024 54.6486 94.0815 54.5858 94.0397C54.5231 93.9769 54.4917 93.9142 54.4917 93.8514C54.4917 93.7887 54.5336 93.7364 54.6172 93.6945C54.7009 93.6318 54.8055 93.5899 54.931 93.569L56.343 93.318C56.6358 93.2552 56.8345 93.1402 56.9391 92.9728C57.0437 92.8055 57.096 92.6068 57.096 92.3767V69.4714C57.096 69.3041 57.0646 69.1786 57.0019 69.0949C56.9391 68.9903 56.8241 68.938 56.6567 68.938L54.8996 68.9067C54.816 68.9067 54.7427 68.8857 54.68 68.8439C54.6381 68.8021 54.6172 68.7498 54.6172 68.687C54.6172 68.6243 54.6381 68.5615 54.68 68.4987C54.7427 68.436 54.8369 68.3942 54.9624 68.3732L65.3796 65.9572C65.5678 65.9154 65.7143 65.884 65.8188 65.8631C65.9234 65.8422 66.028 65.8317 66.1326 65.8317C66.279 65.8317 66.3836 65.884 66.4464 65.9886C66.5091 66.0932 66.5405 66.1978 66.5405 66.3024Z" fill="white"/>
<path d="M99.607 91.9688C102.619 92.4081 104.962 92.9624 106.635 93.6318C108.33 94.2802 109.512 95.1169 110.181 96.1419C110.85 97.1669 111.185 98.4325 111.185 99.9386C111.185 102.762 109.867 105.063 107.232 106.842C104.596 108.62 100.841 109.509 95.9673 109.509C92.2648 109.509 89.2735 109.226 86.9935 108.661C84.7343 108.097 83.0818 107.312 82.0359 106.308C81.0109 105.325 80.4984 104.185 80.4984 102.888C80.4984 101.131 81.1782 99.7712 82.5379 98.809C83.8976 97.8677 86.1567 97.2192 89.3154 96.8636L89.3467 97.1774C88.5937 97.3866 88.008 97.7526 87.5896 98.2756C87.1922 98.8194 86.9935 99.447 86.9935 100.158C86.9935 102.752 87.7779 104.833 89.3467 106.402C90.9156 107.971 93.2375 108.756 96.3124 108.756C97.965 108.756 99.3351 108.588 100.423 108.253C101.511 107.94 102.326 107.438 102.87 106.747C103.414 106.057 103.686 105.168 103.686 104.08C103.686 103.223 103.435 102.47 102.933 101.821C102.431 101.173 101.542 100.597 100.266 100.095C98.9899 99.6143 97.1805 99.175 94.8377 98.7776C92.2857 98.3174 90.2567 97.8363 88.7506 97.3343C87.2445 96.8531 86.1567 96.257 85.4874 95.5458C84.8389 94.8346 84.5147 93.9037 84.5147 92.7532C84.5147 91.7282 84.7866 90.8183 85.3305 90.0234C85.8952 89.2076 86.8052 88.5278 88.0603 87.9839C89.3363 87.4191 91.0306 87.0217 93.1433 86.7916L93.1747 87.0112C92.861 87.0949 92.5577 87.2831 92.2648 87.576C91.9929 87.8688 91.8569 88.2349 91.8569 88.6742C91.8569 89.1344 92.0452 89.5318 92.4217 89.8665C92.8191 90.1803 93.5617 90.5045 94.6495 90.8392C95.7581 91.1739 97.4106 91.5504 99.607 91.9688ZM100.14 67.1495L100.391 66.4906C101.186 64.4825 102.169 62.8509 103.341 61.5958C104.533 60.3407 106.029 59.7132 107.828 59.7132C109.376 59.7132 110.547 60.1525 111.342 61.031C112.158 61.8887 112.566 63.0078 112.566 64.3884C112.566 65.5598 112.262 66.4802 111.656 67.1495C111.07 67.798 110.212 68.1222 109.083 68.1222C108.393 68.1222 107.807 67.9235 107.326 67.5261C106.845 67.1286 106.416 66.6684 106.039 66.1455C105.663 65.6225 105.276 65.1623 104.878 64.7649C104.502 64.3674 104.042 64.1687 103.498 64.1687C102.87 64.1687 102.337 64.4093 101.898 64.8904C101.458 65.3715 101.061 66.0723 100.705 66.9927L100.14 67.1495ZM109.303 76.2175C109.303 78.3302 108.706 80.2233 107.514 81.8968C106.322 83.5702 104.69 84.8985 102.619 85.8816C100.569 86.8439 98.2369 87.325 95.6221 87.325C92.7564 87.325 90.2671 86.8543 88.1544 85.913C86.0417 84.9717 84.3996 83.7166 83.2282 82.1478C82.0777 80.5789 81.5025 78.8636 81.5025 77.0019C81.5025 74.8474 82.0882 72.9125 83.2596 71.1972C84.431 69.4819 86.0835 68.1222 88.2172 67.1182C90.3717 66.1141 92.9342 65.6121 95.9045 65.6121C98.7285 65.6121 101.134 66.1141 103.121 67.1182C105.129 68.1013 106.656 69.3982 107.702 71.0089C108.769 72.6196 109.303 74.3558 109.303 76.2175ZM94.0219 66.3651C93.227 66.4488 92.5576 66.909 92.0138 67.7457C91.4908 68.5615 91.1248 69.7225 90.9156 71.2286C90.7273 72.7347 90.7482 74.5127 90.9783 76.5627C91.2294 78.6754 91.6268 80.4848 92.1707 81.9909C92.7355 83.497 93.3944 84.637 94.1474 85.411C94.9214 86.1849 95.7163 86.5301 96.5321 86.4464C97.7244 86.3628 98.6134 85.4319 99.1991 83.6539C99.8057 81.8549 99.9208 79.397 99.5443 76.2803C99.1887 73.0589 98.4879 70.5801 97.442 68.8439C96.417 67.1077 95.277 66.2814 94.0219 66.3651Z" fill="white"/>
<path d="M125.127 66.02V92.1884C125.127 92.5022 125.18 92.7532 125.284 92.9415C125.41 93.1297 125.608 93.2552 125.88 93.318L127.355 93.6004C127.481 93.6213 127.564 93.6527 127.606 93.6945C127.669 93.7364 127.7 93.7887 127.7 93.8514C127.7 93.9351 127.669 93.9978 127.606 94.0397C127.564 94.0815 127.491 94.1024 127.386 94.1024H113.392C113.33 94.1024 113.267 94.0815 113.204 94.0397C113.141 93.9978 113.11 93.9351 113.11 93.8514C113.11 93.8096 113.131 93.7677 113.173 93.7259C113.235 93.6631 113.33 93.6213 113.455 93.6004L114.93 93.318C115.223 93.2552 115.421 93.1297 115.526 92.9415C115.631 92.7532 115.683 92.5127 115.683 92.2198V69.6283C115.683 69.4819 115.641 69.3668 115.557 69.2832C115.495 69.1995 115.38 69.1577 115.212 69.1577H113.581C113.455 69.1577 113.371 69.1367 113.33 69.0949C113.288 69.0531 113.267 68.9903 113.267 68.9067C113.267 68.823 113.288 68.7602 113.33 68.7184C113.392 68.6766 113.466 68.6452 113.549 68.6243L123.966 65.7376C124.196 65.6748 124.353 65.633 124.437 65.6121C124.521 65.5911 124.615 65.5807 124.719 65.5807C124.866 65.5807 124.97 65.6225 125.033 65.7062C125.096 65.7899 125.127 65.8945 125.127 66.02Z" fill="white"/>
<path d="M141.305 66.02V92.1884C141.305 92.5022 141.367 92.7532 141.493 92.9415C141.618 93.1297 141.807 93.2552 142.058 93.318L143.532 93.6004C143.763 93.6422 143.878 93.7259 143.878 93.8514C143.878 94.0188 143.773 94.1024 143.564 94.1024H129.57C129.507 94.1024 129.444 94.0815 129.381 94.0397C129.319 93.9978 129.287 93.9351 129.287 93.8514C129.287 93.8096 129.308 93.7677 129.35 93.7259C129.413 93.6631 129.507 93.6213 129.632 93.6004L131.107 93.318C131.4 93.2552 131.599 93.1297 131.703 92.9415C131.808 92.7532 131.86 92.5127 131.86 92.2198V69.6283C131.86 69.4819 131.818 69.3668 131.735 69.2832C131.672 69.1995 131.557 69.1577 131.39 69.1577H129.758C129.632 69.1577 129.549 69.1367 129.507 69.0949C129.465 69.0531 129.444 68.9903 129.444 68.9067C129.444 68.823 129.465 68.7602 129.507 68.7184C129.57 68.6766 129.643 68.6452 129.727 68.6243L140.144 65.7376C140.374 65.6748 140.531 65.633 140.614 65.6121C140.698 65.5911 140.792 65.5807 140.897 65.5807C141.043 65.5807 141.148 65.6225 141.211 65.7062C141.273 65.7899 141.305 65.8945 141.305 66.02ZM140.52 72.6719L140.144 72.264L141.336 71.2286C143.47 69.325 145.352 67.9235 146.984 67.024C148.616 66.1036 150.101 65.6434 151.439 65.6434C153.343 65.6434 154.818 66.2082 155.864 67.3378C156.93 68.4674 157.6 70.2559 157.872 72.7033L160.131 92.1257C160.173 92.4604 160.246 92.7323 160.351 92.9415C160.476 93.1297 160.685 93.2552 160.978 93.318L162.327 93.6004C162.453 93.6213 162.536 93.6631 162.578 93.7259C162.641 93.7677 162.672 93.8096 162.672 93.8514C162.672 93.9351 162.641 93.9978 162.578 94.0397C162.536 94.0815 162.463 94.1024 162.359 94.1024H148.113C147.904 94.1024 147.8 94.0188 147.8 93.8514C147.8 93.7468 147.925 93.6631 148.176 93.6004L149.651 93.318C149.965 93.2552 150.184 93.1193 150.31 92.9101C150.456 92.7009 150.509 92.4394 150.467 92.1257L148.584 73.7073C148.438 72.3477 148.134 71.3541 147.674 70.7265C147.214 70.099 146.503 69.7852 145.541 69.7852C144.892 69.7852 144.254 69.9526 143.627 70.2872C142.999 70.601 142.351 71.0612 141.681 71.6678L140.52 72.6719Z" fill="white"/>
<path d="M175.318 66.02V92.1884C175.318 92.5022 175.371 92.7532 175.475 92.9415C175.601 93.1297 175.799 93.2552 176.071 93.318L177.546 93.6004C177.672 93.6213 177.755 93.6527 177.797 93.6945C177.86 93.7364 177.891 93.7887 177.891 93.8514C177.891 93.9351 177.86 93.9978 177.797 94.0397C177.755 94.0815 177.682 94.1024 177.578 94.1024H163.583C163.5 94.1024 163.426 94.0815 163.364 94.0397C163.322 93.9978 163.301 93.9351 163.301 93.8514C163.301 93.8096 163.322 93.7677 163.364 93.7259C163.426 93.6631 163.521 93.6213 163.646 93.6004L165.121 93.318C165.414 93.2552 165.612 93.1297 165.717 92.9415C165.822 92.7532 165.874 92.5127 165.874 92.2198V69.6283C165.874 69.4819 165.832 69.3668 165.748 69.2832C165.686 69.1995 165.571 69.1577 165.403 69.1577H163.772C163.646 69.1577 163.562 69.1367 163.521 69.0949C163.479 69.0531 163.458 68.9903 163.458 68.9067C163.458 68.823 163.479 68.7602 163.521 68.7184C163.583 68.6766 163.657 68.6452 163.74 68.6243L174.157 65.7376C174.388 65.6748 174.544 65.633 174.628 65.6121C174.712 65.5911 174.806 65.5807 174.91 65.5807C175.057 65.5807 175.161 65.6225 175.224 65.7062C175.287 65.7899 175.318 65.8945 175.318 66.02Z" fill="white"/>
<path d="M195.857 91.1844V90.8078L195.418 91.2471V69.6911C195.418 68.5615 195.156 67.6934 194.633 67.0868C194.131 66.4592 193.452 66.1455 192.594 66.1455C191.59 66.1455 190.816 66.4174 190.272 66.9613C189.749 67.5051 189.488 68.1745 189.488 68.9694V71.8875C189.488 73.1216 189.038 74.178 188.138 75.0566C187.239 75.9351 186.067 76.3744 184.624 76.3744C183.641 76.3744 182.825 76.092 182.177 75.5272C181.528 74.9624 181.204 74.0943 181.204 72.9229C181.204 71.7933 181.675 70.6742 182.616 69.5656C183.557 68.436 184.959 67.4947 186.821 66.7416C188.703 65.9886 191.015 65.6121 193.755 65.6121C197.478 65.6121 200.26 66.3651 202.101 67.8712C203.963 69.3564 204.894 71.49 204.894 74.2721V90.1489C204.894 90.7765 205.009 91.2367 205.239 91.5295C205.49 91.8014 205.783 91.9374 206.117 91.9374C206.473 91.9374 206.797 91.8224 207.09 91.5923C207.383 91.3622 207.571 90.9543 207.655 90.3686C207.676 90.264 207.697 90.2012 207.718 90.1803C207.759 90.1385 207.801 90.1175 207.843 90.1175C207.906 90.1175 207.948 90.1385 207.969 90.1803C207.99 90.2012 208 90.264 208 90.3686C208 90.8078 207.791 91.3726 207.372 92.0629C206.954 92.7323 206.253 93.3389 205.27 93.8828C204.287 94.4267 202.959 94.6986 201.285 94.6986C199.361 94.6986 197.97 94.3639 197.112 93.6945C196.275 93.0042 195.857 92.1675 195.857 91.1844ZM179.541 87.9211C179.541 85.5156 180.535 83.612 182.522 82.2105C184.53 80.7881 187.793 80.0769 192.312 80.0769C193.441 80.0769 194.341 80.1919 195.01 80.422C195.7 80.6312 196.338 80.9241 196.924 81.3006L196.642 81.5516C196.035 81.2378 195.439 81.0077 194.853 80.8613C194.267 80.7149 193.598 80.6417 192.845 80.6417C191.59 80.6417 190.617 81.1437 189.927 82.1478C189.237 83.1518 188.891 84.6266 188.891 86.5719C188.891 88.4336 189.237 89.8142 189.927 90.7137C190.617 91.6132 191.506 92.0629 192.594 92.0629C193.263 92.0629 193.933 91.8747 194.602 91.4981C195.292 91.1007 195.847 90.5777 196.265 89.9293L196.673 90.1803C195.794 91.6446 194.55 92.7637 192.939 93.5376C191.328 94.3116 189.592 94.6986 187.73 94.6986C185.346 94.6986 183.379 94.071 181.832 92.816C180.305 91.54 179.541 89.9084 179.541 87.9211Z" fill="white"/>
<path d="M170.563 48.7264C170.563 53.3919 174.345 57.174 179.011 57.174C174.345 57.174 170.563 60.9562 170.563 65.6217C170.563 60.9562 166.781 57.174 162.115 57.174C166.781 57.174 170.563 53.3919 170.563 48.7264Z" fill="white"/>
<path d="M121.61 61.0569C129.447 45.0481 152.882 40.2825 167.526 51.3977C166.856 52.7521 165.693 53.8181 164.271 54.3624C151.908 44.0425 131.084 46.2408 121.811 61.1907C121.21 62.021 120.668 62.8208 120.118 63.6911C120.598 62.7806 121.073 61.9362 121.61 61.0569Z" fill="white"/>
<path d="M18.5125 0.533413L16.3788 0.878557C15.9395 0.941312 15.6049 1.0459 15.3748 1.19233C15.1656 1.33876 15.061 1.53748 15.061 1.78849V41.8884C15.061 42.3904 15.1865 42.746 15.4375 42.9552C15.7094 43.1434 16.1069 43.2376 16.6298 43.2376H20.4578C21.4828 43.2376 22.4973 43.0179 23.5014 42.5787C24.5264 42.1394 25.5723 41.3445 26.6391 40.194C27.7269 39.0435 28.8355 37.391 29.9651 35.2364L33.4793 28.6786C33.5421 28.5531 33.6048 28.4694 33.6676 28.4276C33.7303 28.3858 33.7931 28.3753 33.8558 28.3962C33.9604 28.4171 34.0232 28.4694 34.0441 28.5531C34.0859 28.6368 34.0859 28.7728 34.0441 28.961L31.0319 43.9906C30.9692 44.3044 30.9169 44.4927 30.875 44.5554C30.8332 44.6391 30.7809 44.6809 30.7181 44.6809C30.6135 44.6809 30.4148 44.6182 30.122 44.4927C29.8291 44.3671 29.4631 44.2416 29.0238 44.1161C28.5845 43.9906 28.072 43.9279 27.4863 43.9279H0.376525C0.251016 43.9279 0.156885 43.9069 0.0941311 43.8651C0.031377 43.8024 0 43.7396 0 43.6768C0 43.5513 0.156885 43.4572 0.470656 43.3945L2.6043 43.0493C3.04357 42.9656 3.3678 42.861 3.57698 42.7355C3.80708 42.5891 3.92213 42.3904 3.92213 42.1394V1.78849C3.92213 1.53748 3.80708 1.33876 3.57698 1.19233C3.3678 1.0459 3.04357 0.941312 2.6043 0.878557L0.470656 0.533413C0.156885 0.470658 0 0.376526 0 0.251017C0 0.188263 0.031377 0.135968 0.0941311 0.094132C0.156885 0.0313775 0.251016 0 0.376525 0H18.6066C18.7321 0 18.8262 0.0313775 18.889 0.094132C18.9517 0.135968 18.9831 0.188263 18.9831 0.251017C18.9831 0.376526 18.8262 0.470658 18.5125 0.533413Z" fill="white"/>
<path d="M50.4935 15.4689C53.3593 15.4689 55.9008 16.086 58.1181 17.3201C60.3355 18.5543 62.0716 20.28 63.3267 22.4973C64.6027 24.6937 65.2407 27.2353 65.2407 30.122C65.2407 32.9459 64.5818 35.4456 63.264 37.6211C61.9671 39.7966 60.1786 41.5014 57.8985 42.7355C55.6184 43.9488 53.0037 44.5554 50.0542 44.5554C47.1676 44.5554 44.6156 43.9488 42.3982 42.7355C40.2018 41.5014 38.4761 39.807 37.221 37.6525C35.9659 35.477 35.3384 32.9668 35.3384 30.122C35.3384 27.298 35.9869 24.7879 37.2838 22.5915C38.6016 20.3742 40.4006 18.638 42.6806 17.3829C44.9607 16.1069 47.565 15.4689 50.4935 15.4689ZM52.1565 43.9592C53.1815 43.8337 53.9868 43.2271 54.5725 42.1394C55.1792 41.0307 55.5452 39.42 55.6707 37.3073C55.8172 35.1946 55.6812 32.5798 55.2628 29.463C54.8445 26.3253 54.3111 23.7524 53.6626 21.7443C53.0141 19.7152 52.2506 18.2405 51.3721 17.3201C50.5144 16.3788 49.5522 15.9814 48.4854 16.1278C47.4395 16.2533 46.6132 16.8704 46.0066 17.979C45.4209 19.0877 45.0757 20.6879 44.9712 22.7797C44.8875 24.8715 45.0339 27.4758 45.4104 30.5926C45.8288 33.6885 46.3622 36.2509 47.0107 38.28C47.68 40.309 48.4436 41.7942 49.3012 42.7355C50.1797 43.6559 51.1315 44.0638 52.1565 43.9592Z" fill="white"/>
<path d="M79.3741 37.9662C79.3741 39.4723 79.5101 40.8006 79.782 41.9511C80.054 43.0807 80.3677 44.1161 80.7233 45.0574C81.0999 46.0197 81.4136 46.9714 81.6647 47.9128C81.9366 48.875 82.0726 49.9104 82.0726 51.0191C82.0726 53.2991 81.3718 55.0876 79.9703 56.3846C78.5897 57.7024 76.6443 58.3613 74.1342 58.3613C72.1888 58.3613 70.5363 58.058 69.1766 57.4514C67.8378 56.8657 66.8338 56.0708 66.1644 55.0667C65.4741 54.0836 65.129 52.9854 65.129 51.7721C65.129 50.266 65.495 49.1574 66.2271 48.4462C66.9593 47.7559 67.9215 47.4107 69.1138 47.4107C70.3062 47.4107 71.2893 47.8186 72.0633 48.6344C72.8582 49.4711 73.2556 50.5589 73.2556 51.8976V55.506C73.2556 56.28 73.3811 56.8343 73.6321 57.169C73.9041 57.5246 74.3224 57.7024 74.8872 57.7024C75.7867 57.6815 76.4665 57.3782 76.9267 56.7925C77.3869 56.2067 77.617 55.3177 77.617 54.1254C77.617 52.9331 77.3555 51.8035 76.8326 50.7367C76.3306 49.6699 75.6926 48.6449 74.9186 47.6617C74.1655 46.6995 73.402 45.7477 72.6281 44.8064C71.875 43.886 71.237 42.9552 70.7141 42.0139C70.1911 41.0726 69.9296 40.0999 69.9296 39.0958V19.4538C69.9296 19.3073 69.8878 19.1923 69.8041 19.1086C69.7414 19.025 69.6263 18.9831 69.459 18.9831H67.8274C67.7019 18.9831 67.6182 18.9622 67.5764 18.9204C67.5345 18.8785 67.5136 18.8158 67.5136 18.7321C67.5136 18.6484 67.5345 18.5857 67.5764 18.5438C67.6391 18.502 67.7123 18.4706 67.796 18.4497L78.1818 15.563C78.4119 15.5003 78.5688 15.4584 78.6525 15.4375C78.757 15.4166 78.8616 15.4061 78.9662 15.4061C79.1127 15.4061 79.2173 15.448 79.28 15.5316C79.3428 15.6153 79.3741 15.7199 79.3741 15.8454V37.9662ZM74.5107 12.5508C72.9 12.5508 71.5926 12.0279 70.5886 10.982C69.5845 9.93607 69.0825 8.66007 69.0825 7.15397C69.0825 5.62695 69.5845 4.34049 70.5886 3.29459C71.6135 2.24869 72.9209 1.72574 74.5107 1.72574C76.1423 1.72574 77.4706 2.24869 78.4956 3.29459C79.5415 4.34049 80.0644 5.62695 80.0644 7.15397C80.0644 8.66007 79.5415 9.93607 78.4956 10.982C77.4706 12.0279 76.1423 12.5508 74.5107 12.5508Z" fill="white"/>
<path d="M99.9129 41.0098V40.6333L99.4736 41.0726V19.5165C99.4736 18.387 99.2121 17.5189 98.6892 16.9122C98.1871 16.2847 97.5073 15.9709 96.6497 15.9709C95.6456 15.9709 94.8716 16.2429 94.3278 16.7867C93.8048 17.3306 93.5433 18 93.5433 18.7949V21.7129C93.5433 22.9471 93.0936 24.0034 92.1941 24.882C91.2946 25.7606 90.1232 26.1998 88.6799 26.1998C87.6967 26.1998 86.8809 25.9174 86.2325 25.3527C85.584 24.7879 85.2598 23.9198 85.2598 22.7484C85.2598 21.6188 85.7304 20.4997 86.6717 19.391C87.6131 18.2614 89.0146 17.3201 90.8763 16.5671C92.7589 15.814 95.0703 15.4375 97.8106 15.4375C101.534 15.4375 104.316 16.1906 106.157 17.6967C108.019 19.1818 108.949 21.3155 108.949 24.0976V39.9744C108.949 40.6019 109.064 41.0621 109.295 41.3549C109.546 41.6269 109.838 41.7628 110.173 41.7628C110.529 41.7628 110.853 41.6478 111.146 41.4177C111.439 41.1876 111.627 40.7797 111.711 40.194C111.732 40.0894 111.752 40.0267 111.773 40.0057C111.815 39.9639 111.857 39.943 111.899 39.943C111.962 39.943 112.003 39.9639 112.024 40.0057C112.045 40.0267 112.056 40.0894 112.056 40.194C112.056 40.6333 111.847 41.1981 111.428 41.8884C111.01 42.5577 110.309 43.1644 109.326 43.7082C108.343 44.2521 107.015 44.524 105.341 44.524C103.417 44.524 102.026 44.1893 101.168 43.52C100.331 42.8297 99.9129 41.993 99.9129 41.0098ZM83.5968 37.7466C83.5968 35.341 84.5904 33.4375 86.5776 32.036C88.5857 30.6135 91.849 29.9023 96.3673 29.9023C97.4968 29.9023 98.3963 30.0174 99.0657 30.2475C99.756 30.4567 100.394 30.7495 100.98 31.126L100.697 31.3771C100.091 31.0633 99.4945 30.8332 98.9088 30.6868C98.3231 30.5403 97.6537 30.4671 96.9007 30.4671C95.6456 30.4671 94.6729 30.9691 93.9826 31.9732C93.2923 32.9773 92.9472 34.452 92.9472 36.3974C92.9472 38.2591 93.2923 39.6397 93.9826 40.5391C94.6729 41.4386 95.5619 41.8884 96.6497 41.8884C97.319 41.8884 97.9884 41.7001 98.6578 41.3236C99.3481 40.9261 99.9024 40.4032 100.321 39.7547L100.729 40.0057C99.8501 41.47 98.6055 42.5891 96.9948 43.3631C95.3841 44.1371 93.6479 44.524 91.7862 44.524C89.4016 44.524 87.4353 43.8965 85.8873 42.6414C84.3603 41.3654 83.5968 39.7338 83.5968 37.7466Z" fill="white"/>
</svg>
